<svg id="Layer_1" enable-background="new 0 0 512 512" height="512" viewBox="0 0 512 512" width="512" xmlns="http://www.w3.org/2000/svg"><g><path d="m417.478 196.771-102.249-102.249c-5.857-5.858-15.355-5.858-21.213 0l-199.494 199.494c-5.853 5.852-5.858 15.356 0 21.213l102.249 102.249c5.857 5.858 15.355 5.858 21.213 0l199.495-199.494c5.853-5.853 5.858-15.356-.001-21.213z" fill="#ff9b21"/><g fill="#ff7800"><path d="m429.59 139.214-56.804-56.804c-5.858-5.858-5.858-15.355 0-21.213l56.804-56.803c5.857-5.858 15.355-5.858 21.213 0l56.804 56.804c5.858 5.858 5.858 15.355 0 21.213l-56.804 56.804c-5.859 5.858-15.357 5.856-21.213-.001z"/><path d="m82.41 372.786 56.804 56.804c5.858 5.858 5.858 15.355 0 21.213l-56.804 56.803c-5.857 5.858-15.355 5.858-21.213 0l-56.803-56.804c-5.858-5.858-5.858-15.355 0-21.213l56.804-56.804c5.858-5.858 15.356-5.856 21.212.001z"/><path d="m217.984 417.478 199.495-199.494c5.853-5.852 5.858-15.356 0-21.213l-51.125-51.124-220.708 220.707 51.124 51.124c5.858 5.858 15.356 5.858 21.214 0z"/></g><path d="m450.802 139.214 56.804-56.804c5.858-5.858 5.858-15.355 0-21.213l-28.402-28.402-78.017 78.017 28.402 28.402c5.857 5.857 15.355 5.859 21.213 0z" fill="#e9501e"/><path d="m82.41 507.606 56.804-56.804c5.858-5.858 5.858-15.355 0-21.213l-28.402-28.402-78.017 78.017 28.402 28.402c5.858 5.859 15.356 5.859 21.213 0z" fill="#e9501e"/><path d="m94.522 294.016 123.462 123.461-56.051 56.051c-5.857 5.858-15.355 5.858-21.213 0l-102.249-102.247c-5.858-5.857-5.858-15.355 0-21.213z" fill="#ffbe43"/><path d="m161.933 473.529 56.051-56.051-61.731-61.731-66.657 66.657 51.125 51.124c5.856 5.859 15.354 5.859 21.212.001z" fill="#ff9b21"/><path d="m417.478 217.984-123.462-123.462 56.051-56.051c5.857-5.858 15.355-5.858 21.213 0l102.249 102.248c5.858 5.857 5.858 15.355 0 21.213z" fill="#ffbe43"/><path d="m473.529 161.932c5.858-5.858 5.858-15.355 0-21.213l-51.125-51.124-66.657 66.657 61.731 61.731z" fill="#ff9b21"/></g></svg>