<?xml version="1.0" encoding="iso-8859-1"?>
<!-- Generator: Adobe Illustrator 19.0.0, SVG Export Plug-In . SVG Version: 6.00 Build 0)  -->
<svg version="1.1" id="Capa_1" xmlns="http://www.w3.org/2000/svg" xmlns:xlink="http://www.w3.org/1999/xlink" x="0px" y="0px"
	 viewBox="0 0 512.01 512.01" style="enable-background:new 0 0 512.01 512.01;" xml:space="preserve">
<path style="fill:#303C42;" d="M402.761,37.093c-3.895-10.729-11.728-19.292-22.081-24.125L361.494,4.02
	c-10.353-4.833-21.956-5.292-32.663-1.427c-10.707,3.917-19.269,11.771-24.102,22.146l-4.375,9.458
	c-0.062,0.156-0.125,0.312-0.187,0.469l-44.162,108.797l-44.35-109.266l-4.375-9.458C202.469,14.385,193.928,6.52,183.2,2.604
	c-10.686-3.896-22.331-3.417-32.663,1.417l-19.227,8.948c-10.332,4.833-18.165,13.396-22.06,24.125
	c-3.895,10.729-3.354,22.333,1.479,32.656l101.337,181.96l-93.297,229.842c-4.145,10.792,1.125,23.198,11.957,28.25
	c3.187,1.49,6.562,2.198,9.874,2.198c7.916,0,15.498-4.063,19.394-11.156L256,329.944l95.975,170.827
	c3.937,7.156,11.52,11.24,19.456,11.24c3.291,0,6.666-0.719,9.853-2.208c10.832-5.052,16.103-17.458,11.874-28.448l-93.211-229.642
	l96.919-172.525l4.416-9.427C406.115,59.427,406.656,47.822,402.761,37.093z"/>
<path style="fill:#FFA726;" d="M130.047,60.697c-2.438-5.167-2.708-10.969-0.75-16.333c1.938-5.365,5.854-9.646,11.021-12.063
	l19.229-8.948c5.125-2.417,10.938-2.677,16.333-0.708c5.354,1.958,9.625,5.885,12.021,11.052l24.283,59.264l-51.424,23.974
	l-26.296-46.79L130.047,60.697z"/>
<g>
	<polygon style="fill:#6D4C41;" points="171.237,135.58 220.277,112.717 244.493,171.819 222.311,226.462 	"/>
	<polygon style="fill:#6D4C41;" points="141.401,490.385 138.588,489.375 291.541,112.627 340.195,135.311 	"/>
	<polygon style="fill:#6D4C41;" points="373.38,489.291 370.609,490.385 268.229,308.177 286.595,275.485 	"/>
</g>
<polygon style="opacity:0.1;enable-background:new    ;" points="296.552,300.015 286.595,275.485 268.229,308.177 280.099,329.302 
	"/>
<path style="fill:#FFA726;" d="M381.963,60.708l-31.322,55.944l-51.069-23.809l20.266-49.917l4.25-9.219
	c2.417-5.177,6.708-9.115,12.063-11.073c5.354-1.938,11.188-1.688,16.333,0.719l19.188,8.948c5.188,2.417,9.104,6.698,11.042,12.063
	C384.672,49.729,384.401,55.531,381.963,60.708z"/>
<g>
	<path style="opacity:0.2;fill:#FFFFFF;enable-background:new    ;" d="M138.588,489.375c0.013,0,0.315,0.115,0.428,0.154
		l178.641-364.725l-26.116-12.176L138.588,489.375z"/>
	<path style="opacity:0.2;fill:#FFFFFF;enable-background:new    ;" d="M352.484,23.354c-5.146-2.406-10.979-2.656-16.333-0.719
		c-5.354,1.958-9.646,5.896-12.063,11.073l-4.25,9.219l-20.266,49.917l27.466,12.805l37.544-76.652L352.484,23.354z"/>
</g>
<g>
	<path style="opacity:0.2;fill:#FFFFFF;enable-background:new    ;" d="M140.317,32.302c-5.167,2.417-9.083,6.698-11.021,12.063
		c-1.958,5.365-1.688,11.167,0.75,16.333l4.417,9.448l26.296,46.79l27.147-12.656l-37.104-76.857L140.317,32.302z"/>
	<polygon style="opacity:0.2;fill:#FFFFFF;enable-background:new    ;" points="197.177,123.487 171.237,135.58 222.311,226.462 
		233.539,198.806 	"/>
</g>
<linearGradient id="SVGID_1_" gradientUnits="userSpaceOnUse" x1="-44.3854" y1="661.0811" x2="-25.1856" y2="652.1282" gradientTransform="matrix(21.3333 0 0 -21.3333 996.2324 14268.2227)">
	<stop  offset="0" style="stop-color:#FFFFFF;stop-opacity:0.2"/>
	<stop  offset="1" style="stop-color:#FFFFFF;stop-opacity:0"/>
</linearGradient>
<path style="fill:url(#SVGID_1_);" d="M402.761,37.093c-3.895-10.729-11.728-19.292-22.081-24.125L361.494,4.02
	c-10.353-4.833-21.956-5.292-32.663-1.427c-10.707,3.917-19.269,11.771-24.102,22.146l-4.375,9.458
	c-0.062,0.156-0.125,0.312-0.187,0.469l-44.162,108.797l-44.35-109.266l-4.375-9.458C202.469,14.385,193.928,6.52,183.2,2.604
	c-10.686-3.896-22.331-3.417-32.663,1.417l-19.227,8.948c-10.332,4.833-18.165,13.396-22.06,24.125
	c-3.895,10.729-3.354,22.333,1.479,32.656l101.337,181.96l-93.297,229.842c-4.145,10.792,1.125,23.198,11.957,28.25
	c3.187,1.49,6.562,2.198,9.874,2.198c7.916,0,15.498-4.063,19.394-11.156L256,329.944l95.975,170.827
	c3.937,7.156,11.52,11.24,19.456,11.24c3.291,0,6.666-0.719,9.853-2.208c10.832-5.052,16.103-17.458,11.874-28.448l-93.211-229.642
	l96.919-172.525l4.416-9.427C406.115,59.427,406.656,47.822,402.761,37.093z"/>
<g>
</g>
<g>
</g>
<g>
</g>
<g>
</g>
<g>
</g>
<g>
</g>
<g>
</g>
<g>
</g>
<g>
</g>
<g>
</g>
<g>
</g>
<g>
</g>
<g>
</g>
<g>
</g>
<g>
</g>
</svg>
