<svg id="Layer_1" enable-background="new 0 0 512 512" height="512" viewBox="0 0 512 512" width="512" xmlns="http://www.w3.org/2000/svg"><g><path d="m85.318 324.828 44.799-44.799c5.858-5.858 15.355-5.858 21.213 0l56.804 56.804c5.858 5.858 5.858 15.355 0 21.213l-44.799 44.799c-5.858 5.858-15.355 5.858-21.213 0l-56.804-56.804c-5.858-5.857-5.858-15.355 0-21.213z" fill="#ffbe43"/><path d="m163.336 402.846 44.799-44.799c5.858-5.858 5.858-15.355 0-21.213l-28.402-28.402-66.012 66.012 28.402 28.402c5.857 5.858 15.355 5.858 21.213 0z" fill="#ff9b21"/><path d="m85.318 324.828-80.925 80.925c-5.858 5.858-5.858 15.355 0 21.213l56.804 56.804c5.857 5.857 15.354 5.858 21.213 0l80.925-80.924z" fill="#ff7800"/><path d="m82.411 483.77 80.925-80.924-39.009-39.009-91.531 91.531 28.402 28.402c5.857 5.857 15.354 5.858 21.213 0z" fill="#e9501e"/><path d="m507.607 188.898-34.832-34.838c-5.856-5.856-15.353-5.858-21.212.001l-213.091 213.092c-5.857 5.857-5.858 15.354-.001 21.212l34.832 34.838c5.856 5.856 15.353 5.858 21.212-.001l213.092-213.092c5.857-5.858 5.858-15.355 0-21.212z" fill="#f4f1f1"/><path d="m130.118 280.029 155.884-155.881c22.783-22.784 35.331-53.082 35.331-85.312 0-6.067 3.654-11.536 9.26-13.858 5.604-2.321 12.056-1.039 16.347 3.251l125.836 125.83-234.312 234.312z" fill="#e4e4e7"/><path d="m155.268 187.521h331.366v98.055h-331.366z" fill="#dddddf" transform="matrix(.707 -.707 .707 .707 -73.259 296.239)"/></g></svg>