<svg id="Layer_1" enable-background="new 0 0 512 512" height="512" viewBox="0 0 512 512" width="512" xmlns="http://www.w3.org/2000/svg"><g><path d="m261.463 250.543c-5.859-5.856-5.862-15.354-.006-21.213l43.139-43.163c5.855-5.861 15.354-5.862 21.213-.006s5.862 15.354.006 21.213l-43.139 43.163c-5.855 5.86-15.354 5.862-21.213.006z" fill="#dddddf"/><path d="m243.677 325.136-56.805-56.805c-5.857-5.858-15.355-5.858-21.213 0l-161.266 161.259c-5.858 5.858-5.858 15.355 0 21.213l56.804 56.804c5.857 5.857 15.354 5.858 21.213 0l161.266-161.257c5.859-5.859 5.859-15.356.001-21.214z" fill="#ff7800"/><path d="m82.411 507.607 161.266-161.257c5.858-5.858 5.858-15.355 0-21.213l-28.416-28.416-182.467 182.482 28.404 28.403c5.857 5.858 15.354 5.859 21.213.001z" fill="#e9501e"/><path d="m215.271 224.934c-3.978 0-7.793 1.581-10.606 4.393l-39.006 39.005 78.018 78.018 39.005-39.006c2.813-2.813 4.393-6.628 4.393-10.606v-50.59l-21.213-21.213h-50.591z" fill="#ffbe43"/><path d="m282.682 307.343c2.813-2.813 4.393-6.628 4.393-10.606v-50.59l-10.623-10.622-71.797 71.803 39.022 39.022z" fill="#ff9b21"/><g fill="#dddddf"><path d="m327.338 93.772c-5.859-5.856-5.862-15.354-.006-21.213l68.122-68.163c5.855-5.86 15.354-5.861 21.213-.006 5.859 5.856 5.862 15.354.006 21.213l-68.122 68.163c-5.857 5.86-15.354 5.861-21.213.006z"/><path d="m372.807 139.218c-5.86-5.856-5.863-15.354-.008-21.213l68.123-68.171c5.855-5.86 15.354-5.863 21.213-.007 5.86 5.856 5.863 15.354.008 21.213l-68.123 68.17c-5.857 5.861-15.354 5.863-21.213.008z"/><path d="m418.188 184.655c-5.856-5.859-5.854-15.356.005-21.213l68.203-68.17c5.858-5.856 15.355-5.855 21.214.005 5.856 5.859 5.854 15.357-.005 21.213l-68.203 68.17c-5.862 5.858-15.358 5.853-21.214-.005z"/></g><path d="m304.609 207.386c-30.879-30.92-30.879-81.202-.017-112.105 12.542-12.526 22.742-22.726 22.742-22.726 2.813-2.813 6.629-4.393 10.606-4.393h.002c3.979 0 7.794 1.582 10.606 4.396l90.855 90.889c5.856 5.858 5.855 15.354-.002 21.211 0 0-10.205 10.206-22.74 22.725-30.845 30.887-81.118 30.876-112.052.003z" fill="#f4f1f1"/><path d="m416.663 207.383c12.535-12.52 22.74-22.725 22.74-22.725 5.857-5.857 5.858-15.353.002-21.211l-45.434-45.451-89.372 89.38c.003.004.007.007.01.011 30.934 30.872 81.207 30.883 112.054-.004z" fill="#e4e4e7"/></g></svg>